<svg width="256" height="256" version="1.1" xmlns="http://www.w3.org/2000/svg" desc="Created with imagetracer.js version 1.2.6" ><path fill="rgb(0,0,0)" stroke="rgb(0,0,0)" stroke-width="1" opacity="0" d="M 0 0 L 113 0.5 L 93.5 4 L 66.5 15 Q 46.4 25.9 32 42.5 Q 19.2 56.2 11 74.5 Q 2.7 91.2 0.5 114 L 0 0 Z " /><path fill="rgb(0,0,0)" stroke="rgb(0,0,0)" stroke-width="1" opacity="0" d="M 143.5 0 L 256 0 L 256 112.5 L 255 112.5 L 252 93.5 L 241 66.5 Q 229.9 46.6 213.5 32 Q 198.9 18.6 179.5 10 L 162.5 4 L 143.5 1 L 143.5 0 Z " /><path fill="rgb(0,0,0)" stroke="rgb(0,0,0)" stroke-width="1" opacity="0" d="M 111.5 24 Q 116 23.5 116 24.5 L 116 232 Q 73 225.6 50 198.5 Q 37.5 185 30 166.5 L 24 143.5 L 23 120.5 L 24 119.5 L 25 106.5 L 30 89.5 Q 39.8 65.8 57.5 50 Q 77.8 30.3 111.5 24 Z " /><path fill="rgb(0,0,0)" stroke="rgb(0,0,0)" stroke-width="1" opacity="0" d="M 0.5 143 L 4 163.5 Q 9 180 17 193.5 Q 28.3 212.2 44.5 226 Q 59.1 238.9 78.5 247 L 92.5 252 L 113 255.5 L 0 256 L 0.5 143 Z " /><path fill="rgb(0,0,0)" stroke="rgb(0,0,0)" stroke-width="1" opacity="0" d="M 255.5 143 L 256 256 L 142 255.5 L 162.5 252 L 189.5 241 Q 208.8 230.3 223 214.5 Q 237.1 199.6 246 179.5 L 251 166.5 L 255.5 143 Z " /><path fill="rgb(255,255,255)" stroke="rgb(255,255,255)" stroke-width="1" opacity="0.49411764705882355" d="M 113.5 0 L 117 0.5 L 113.5 1 L 113.5 0 Z " /><path fill="rgb(255,255,255)" stroke="rgb(255,255,255)" stroke-width="1" opacity="0.49411764705882355" d="M 134.5 0 L 143 0.5 L 134.5 1 L 134.5 0 Z " /><path fill="rgb(255,255,255)" stroke="rgb(255,255,255)" stroke-width="1" opacity="0.49411764705882355" d="M 106.5 1 L 111 1.5 L 106.5 2 L 106.5 1 Z " /><path fill="rgb(255,255,255)" stroke="rgb(255,255,255)" stroke-width="1" opacity="0.49411764705882355" d="M 145.5 1 L 149 1.5 L 145.5 2 L 145.5 1 Z " /><path fill="rgb(255,255,255)" stroke="rgb(255,255,255)" stroke-width="1" opacity="0.49411764705882355" d="M 101.5 2 L 104 2.5 L 101.5 3 L 101.5 2 Z " /><path fill="rgb(255,255,255)" stroke="rgb(255,255,255)" stroke-width="1" opacity="0.49411764705882355" d="M 152.5 2 L 155 2.5 L 152.5 3 L 152.5 2 Z " /><path fill="rgb(255,255,255)" stroke="rgb(255,255,255)" stroke-width="1" opacity="0.49411764705882355" d="M 97.5 3 L 100 3.5 L 97.5 4 L 97.5 3 Z " /><path fill="rgb(255,255,255)" stroke="rgb(255,255,255)" stroke-width="1" opacity="0.49411764705882355" d="M 156.5 3 L 159 3.5 L 156.5 4 L 156.5 3 Z " /><path fill="rgb(255,255,255)" stroke="rgb(255,255,255)" stroke-width="1" opacity="0.49411764705882355" d="M 160.5 4 L 163 4.5 L 160.5 5 L 160.5 4 Z " /><path fill="rgb(255,255,255)" stroke="rgb(255,255,255)" stroke-width="1" opacity="0.49411764705882355" d="M 76.5 10 L 78 10.5 L 72.5 13 L 72.5 12 L 76.5 10 Z " /><path fill="rgb(255,255,255)" stroke="rgb(255,255,255)" stroke-width="1" opacity="0.49411764705882355" d="M 178.5 10 L 188 14.5 L 186.5 15 L 178.5 11 L 178.5 10 Z " /><path fill="rgb(255,255,255)" stroke="rgb(255,255,255)" stroke-width="1" opacity="0.49411764705882355" d="M 68.5 14 L 67.5 16 L 65.5 17 L 66.5 15 L 68.5 14 Z " /><path fill="rgb(255,255,255)" stroke="rgb(255,255,255)" stroke-width="1" opacity="0.49411764705882355" d="M 189.5 15 L 190.5 17 L 189.5 15 Z " /><path fill="rgb(255,255,255)" stroke="rgb(255,255,255)" stroke-width="1" opacity="0.49411764705882355" d="M 194.5 18 L 195.5 20 L 194.5 18 Z " /><path fill="rgb(255,255,255)" stroke="rgb(255,255,255)" stroke-width="1" opacity="0.49411764705882355" d="M 59.5 19 L 57.5 22 L 54.5 24 L 56.5 21 L 59.5 19 Z " /><path fill="rgb(255,255,255)" stroke="rgb(255,255,255)" stroke-width="1" opacity="0.49411764705882355" d="M 199.5 21 L 201.5 24 L 199.5 21 Z " /><path fill="rgb(255,255,255)" stroke="rgb(255,255,255)" stroke-width="1" opacity="0.49411764705882355" d="M 114.5 23 L 117 23.5 L 117 233 L 114 232.5 L 116 232 L 116 24.5 L 114.5 24 L 114.5 23 Z " /><path fill="rgb(255,255,255)" stroke="rgb(255,255,255)" stroke-width="1" opacity="0.49411764705882355" d="M 52.5 24 L 51.5 26 L 52.5 24 Z " /><path fill="rgb(255,255,255)" stroke="rgb(255,255,255)" stroke-width="1" opacity="0.49411764705882355" d="M 108.5 24 L 111 24.5 L 108.5 25 L 108.5 24 Z " /><path fill="rgb(255,255,255)" stroke="rgb(255,255,255)" stroke-width="1" opacity="0.49411764705882355" d="M 203.5 24 L 205.5 27 L 203.5 24 Z " /><path fill="rgb(255,255,255)" stroke="rgb(255,255,255)" stroke-width="1" opacity="0.49411764705882355" d="M 103.5 25 L 106 25.5 L 103.5 26 L 103.5 25 Z " /><path fill="rgb(255,255,255)" stroke="rgb(255,255,255)" stroke-width="1" opacity="0.49411764705882355" d="M 49.5 26 L 45.5 31 L 49.5 26 Z " /><path fill="rgb(255,255,255)" stroke="rgb(255,255,255)" stroke-width="1" opacity="0.49411764705882355" d="M 207.5 27 L 210.5 31 L 207.5 27 Z " /><path fill="rgb(255,255,255)" stroke="rgb(255,255,255)" stroke-width="1" opacity="0.49411764705882355" d="M 43.5 31 L 32.5 43 L 43.5 31 Z " /><path fill="rgb(255,255,255)" stroke="rgb(255,255,255)" stroke-width="1" opacity="0.49411764705882355" d="M 213.5 32 L 223.5 43 L 213.5 32 Z " /><path fill="rgb(255,255,255)" stroke="rgb(255,255,255)" stroke-width="1" opacity="0.49411764705882355" d="M 79.5 34 L 78.5 36 L 79.5 34 Z " /><path fill="rgb(255,255,255)" stroke="rgb(255,255,255)" stroke-width="1" opacity="0.49411764705882355" d="M 72.5 38 L 71.5 40 L 72.5 38 Z " /><path fill="rgb(255,255,255)" stroke="rgb(255,255,255)" stroke-width="1" opacity="0.49411764705882355" d="M 69.5 40 L 68.5 42 L 69.5 40 Z " /><path fill="rgb(255,255,255)" stroke="rgb(255,255,255)" stroke-width="1" opacity="0.49411764705882355" d="M 65.5 43 L 64.5 45 L 65.5 43 Z " /><path fill="rgb(255,255,255)" stroke="rgb(255,255,255)" stroke-width="1" opacity="0.49411764705882355" d="M 225.5 45 L 228.5 49 L 225.5 45 Z " /><path fill="rgb(255,255,255)" stroke="rgb(255,255,255)" stroke-width="1" opacity="0.49411764705882355" d="M 29.5 46 L 26.5 50 L 29.5 46 Z " /><path fill="rgb(255,255,255)" stroke="rgb(255,255,255)" stroke-width="1" opacity="0.49411764705882355" d="M 61.5 46 L 58.5 50 L 61.5 46 Z " /><path fill="rgb(255,255,255)" stroke="rgb(255,255,255)" stroke-width="1" opacity="0.49411764705882355" d="M 229.5 50 L 231.5 53 L 229.5 50 Z " /><path fill="rgb(255,255,255)" stroke="rgb(255,255,255)" stroke-width="1" opacity="0.49411764705882355" d="M 25.5 51 L 24.5 53 L 25.5 51 Z " /><path fill="rgb(255,255,255)" stroke="rgb(255,255,255)" stroke-width="1" opacity="0.49411764705882355" d="M 23.5 54 L 22.5 56 L 23.5 54 Z " /><path fill="rgb(255,255,255)" stroke="rgb(255,255,255)" stroke-width="1" opacity="0.49411764705882355" d="M 232.5 54 L 234.5 57 L 232.5 54 Z " /><path fill="rgb(255,255,255)" stroke="rgb(255,255,255)" stroke-width="1" opacity="0.49411764705882355" d="M 20.5 58 L 19.5 60 L 20.5 58 Z " /><path fill="rgb(255,255,255)" stroke="rgb(255,255,255)" stroke-width="1" opacity="0.49411764705882355" d="M 48.5 59 L 46.5 62 L 48.5 59 Z " /><path fill="rgb(255,255,255)" stroke="rgb(255,255,255)" stroke-width="1" opacity="0.49411764705882355" d="M 236.5 60 L 237.5 62 L 236.5 60 Z " /><path fill="rgb(255,255,255)" stroke="rgb(255,255,255)" stroke-width="1" opacity="0.49411764705882355" d="M 44.5 64 L 43.5 66 L 44.5 64 Z " /><path fill="rgb(255,255,255)" stroke="rgb(255,255,255)" stroke-width="1" opacity="0.49411764705882355" d="M 16.5 65 L 15.5 67 L 16.5 65 Z " /><path fill="rgb(255,255,255)" stroke="rgb(255,255,255)" stroke-width="1" opacity="0.49411764705882355" d="M 239.5 65 L 240.5 67 L 239.5 65 Z " /><path fill="rgb(255,255,255)" stroke="rgb(255,255,255)" stroke-width="1" opacity="0.49411764705882355" d="M 41.5 68 L 40.5 70 L 41.5 68 Z " /><path fill="rgb(255,255,255)" stroke="rgb(255,255,255)" stroke-width="1" opacity="0.49411764705882355" d="M 39.5 71 L 38.5 73 L 39.5 71 Z " /><path fill="rgb(255,255,255)" stroke="rgb(255,255,255)" stroke-width="1" opacity="0.49411764705882355" d="M 243.5 72 L 246 77.5 L 245 77.5 L 243.5 72 Z " /><path fill="rgb(255,255,255)" stroke="rgb(255,255,255)" stroke-width="1" opacity="0.49411764705882355" d="M 35.5 78 L 35 79.5 L 32.5 85 L 32 83.5 L 35.5 78 Z " /><path fill="rgb(255,255,255)" stroke="rgb(255,255,255)" stroke-width="1" opacity="0.49411764705882355" d="M 4.5 93 L 5 95.5 L 4 95.5 L 4.5 93 Z " /><path fill="rgb(255,255,255)" stroke="rgb(255,255,255)" stroke-width="1" opacity="0.49411764705882355" d="M 3.5 97 L 4 99.5 L 3 99.5 L 3.5 97 Z " /><path fill="rgb(255,255,255)" stroke="rgb(255,255,255)" stroke-width="1" opacity="0.49411764705882355" d="M 26.5 99 L 27 101.5 L 26 101.5 L 26.5 99 Z " /><path fill="rgb(255,255,255)" stroke="rgb(255,255,255)" stroke-width="1" opacity="0.49411764705882355" d="M 253.5 101 L 254 103.5 L 253 103.5 L 253.5 101 Z " /><path fill="rgb(255,255,255)" stroke="rgb(255,255,255)" stroke-width="1" opacity="0.49411764705882355" d="M 25.5 103 L 26 105.5 L 25 105.5 L 25.5 103 Z " /><path fill="rgb(255,255,255)" stroke="rgb(255,255,255)" stroke-width="1" opacity="0.49411764705882355" d="M 1.5 107 L 2 110.5 L 1 110.5 L 1.5 107 Z " /><path fill="rgb(255,255,255)" stroke="rgb(255,255,255)" stroke-width="1" opacity="0.49411764705882355" d="M 24.5 107 L 25 111.5 L 24 111.5 L 24.5 107 Z " /><path fill="rgb(255,255,255)" stroke="rgb(255,255,255)" stroke-width="1" opacity="0.49411764705882355" d="M 254.5 107 L 255 109.5 L 254 109.5 L 254.5 107 Z " /><path fill="rgb(255,255,255)" stroke="rgb(255,255,255)" stroke-width="1" opacity="0.49411764705882355" d="M 255.5 113 L 256 120.5 L 255 120.5 L 255.5 113 Z " /><path fill="rgb(255,255,255)" stroke="rgb(255,255,255)" stroke-width="1" opacity="0.49411764705882355" d="M 0.5 114 L 1 121.5 L 0 121.5 L 0.5 114 Z " /><path fill="rgb(255,255,255)" stroke="rgb(255,255,255)" stroke-width="1" opacity="0.49411764705882355" d="M 23.5 114 L 24 119.5 L 23 119.5 L 23.5 114 Z " /><path fill="rgb(255,255,255)" stroke="rgb(255,255,255)" stroke-width="1" opacity="0.49411764705882355" d="M 255.5 134 L 256 142.5 L 255 142.5 L 255.5 134 Z " /><path fill="rgb(255,255,255)" stroke="rgb(255,255,255)" stroke-width="1" opacity="0.49411764705882355" d="M 0.5 135 L 1 142.5 L 0 142.5 L 0.5 135 Z " /><path fill="rgb(255,255,255)" stroke="rgb(255,255,255)" stroke-width="1" opacity="0.49411764705882355" d="M 23.5 136 L 24 140.5 L 23 140.5 L 23.5 136 Z " /><path fill="rgb(255,255,255)" stroke="rgb(255,255,255)" stroke-width="1" opacity="0.49411764705882355" d="M 24.5 144 L 25 147.5 L 24 147.5 L 24.5 144 Z " /><path fill="rgb(255,255,255)" stroke="rgb(255,255,255)" stroke-width="1" opacity="0.49411764705882355" d="M 254.5 145 L 255 148.5 L 254 148.5 L 254.5 145 Z " /><path fill="rgb(255,255,255)" stroke="rgb(255,255,255)" stroke-width="1" opacity="0.49411764705882355" d="M 1.5 146 L 2 149.5 L 1 149.5 L 1.5 146 Z " /><path fill="rgb(255,255,255)" stroke="rgb(255,255,255)" stroke-width="1" opacity="0.49411764705882355" d="M 253.5 151 L 254 154.5 L 253 154.5 L 253.5 151 Z " /><path fill="rgb(255,255,255)" stroke="rgb(255,255,255)" stroke-width="1" opacity="0.49411764705882355" d="M 252.5 156 L 253 158.5 L 252 158.5 L 252.5 156 Z " /><path fill="rgb(255,255,255)" stroke="rgb(255,255,255)" stroke-width="1" opacity="0.49411764705882355" d="M 251.5 160 L 252 162.5 L 251 162.5 L 251.5 160 Z " /><path fill="rgb(255,255,255)" stroke="rgb(255,255,255)" stroke-width="1" opacity="0.49411764705882355" d="M 4.5 161 L 5 163.5 L 4 163.5 L 4.5 161 Z " /><path fill="rgb(255,255,255)" stroke="rgb(255,255,255)" stroke-width="1" opacity="0.49411764705882355" d="M 250.5 164 L 251 166.5 L 249.5 169 L 249 167.5 L 250.5 164 Z " /><path fill="rgb(255,255,255)" stroke="rgb(255,255,255)" stroke-width="1" opacity="0.49411764705882355" d="M 6.5 168 L 9 174.5 L 8 174.5 L 6.5 168 Z " /><path fill="rgb(255,255,255)" stroke="rgb(255,255,255)" stroke-width="1" opacity="0.49411764705882355" d="M 33.5 173 L 36 177.5 L 34 176.5 L 33.5 173 Z " /><path fill="rgb(255,255,255)" stroke="rgb(255,255,255)" stroke-width="1" opacity="0.49411764705882355" d="M 247.5 173 L 248 174.5 L 246.5 177 L 246 175.5 L 247.5 173 Z " /><path fill="rgb(255,255,255)" stroke="rgb(255,255,255)" stroke-width="1" opacity="0.49411764705882355" d="M 9.5 176 L 12 181.5 L 11 181.5 L 9.5 176 Z " /><path fill="rgb(255,255,255)" stroke="rgb(255,255,255)" stroke-width="1" opacity="0.49411764705882355" d="M 245.5 178 L 246 179.5 L 241.5 188 L 241 186.5 L 245.5 178 Z " /><path fill="rgb(255,255,255)" stroke="rgb(255,255,255)" stroke-width="1" opacity="0.49411764705882355" d="M 38.5 183 L 39.5 185 L 38.5 183 Z " /><path fill="rgb(255,255,255)" stroke="rgb(255,255,255)" stroke-width="1" opacity="0.49411764705882355" d="M 40.5 186 L 41.5 188 L 40.5 186 Z " /><path fill="rgb(255,255,255)" stroke="rgb(255,255,255)" stroke-width="1" opacity="0.49411764705882355" d="M 14.5 187 L 19 194.5 L 17 193.5 L 14.5 187 Z " /><path fill="rgb(255,255,255)" stroke="rgb(255,255,255)" stroke-width="1" opacity="0.49411764705882355" d="M 42.5 189 L 44.5 192 L 42.5 189 Z " /><path fill="rgb(255,255,255)" stroke="rgb(255,255,255)" stroke-width="1" opacity="0.49411764705882355" d="M 240.5 189 L 239.5 191 L 240.5 189 Z " /><path fill="rgb(255,255,255)" stroke="rgb(255,255,255)" stroke-width="1" opacity="0.49411764705882355" d="M 45.5 193 L 49.5 198 L 45.5 193 Z " /><path fill="rgb(255,255,255)" stroke="rgb(255,255,255)" stroke-width="1" opacity="0.49411764705882355" d="M 237.5 194 L 236.5 196 L 237.5 194 Z " /><path fill="rgb(255,255,255)" stroke="rgb(255,255,255)" stroke-width="1" opacity="0.49411764705882355" d="M 19.5 196 Q 30 212.5 44.5 225 L 69 241.5 L 67.5 241 Q 44.8 230.2 30 211.5 L 19.5 196 Z " /><path fill="rgb(255,255,255)" stroke="rgb(255,255,255)" stroke-width="1" opacity="0.49411764705882355" d="M 234.5 199 L 233.5 201 L 234.5 199 Z " /><path fill="rgb(255,255,255)" stroke="rgb(255,255,255)" stroke-width="1" opacity="0.49411764705882355" d="M 231.5 203 L 230.5 205 L 231.5 203 Z " /><path fill="rgb(255,255,255)" stroke="rgb(255,255,255)" stroke-width="1" opacity="0.49411764705882355" d="M 58.5 206 L 62.5 211 L 58.5 206 Z " /><path fill="rgb(255,255,255)" stroke="rgb(255,255,255)" stroke-width="1" opacity="0.49411764705882355" d="M 228.5 207 L 227.5 209 L 228.5 207 Z " /><path fill="rgb(255,255,255)" stroke="rgb(255,255,255)" stroke-width="1" opacity="0.49411764705882355" d="M 64.5 211 L 66.5 214 L 64.5 211 Z " /><path fill="rgb(255,255,255)" stroke="rgb(255,255,255)" stroke-width="1" opacity="0.49411764705882355" d="M 68.5 214 L 69.5 216 L 68.5 214 Z " /><path fill="rgb(255,255,255)" stroke="rgb(255,255,255)" stroke-width="1" opacity="0.49411764705882355" d="M 222.5 214 L 214.5 223 L 222.5 214 Z " /><path fill="rgb(255,255,255)" stroke="rgb(255,255,255)" stroke-width="1" opacity="0.49411764705882355" d="M 71.5 216 L 72.5 218 L 71.5 216 Z " /><path fill="rgb(255,255,255)" stroke="rgb(255,255,255)" stroke-width="1" opacity="0.49411764705882355" d="M 76.5 219 L 85 223.5 L 83.5 224 L 77.5 221 L 76.5 219 Z " /><path fill="rgb(255,255,255)" stroke="rgb(255,255,255)" stroke-width="1" opacity="0.49411764705882355" d="M 209.5 226 L 207.5 229 L 209.5 226 Z " /><path fill="rgb(255,255,255)" stroke="rgb(255,255,255)" stroke-width="1" opacity="0.49411764705882355" d="M 99.5 229 L 102 229.5 L 99.5 230 L 99.5 229 Z " /><path fill="rgb(255,255,255)" stroke="rgb(255,255,255)" stroke-width="1" opacity="0.49411764705882355" d="M 205.5 229 L 203.5 232 L 205.5 229 Z " /><path fill="rgb(255,255,255)" stroke="rgb(255,255,255)" stroke-width="1" opacity="0.49411764705882355" d="M 103.5 230 L 106 230.5 L 103.5 231 L 103.5 230 Z " /><path fill="rgb(255,255,255)" stroke="rgb(255,255,255)" stroke-width="1" opacity="0.49411764705882355" d="M 108.5 231 L 111 231.5 L 108.5 232 L 108.5 231 Z " /><path fill="rgb(255,255,255)" stroke="rgb(255,255,255)" stroke-width="1" opacity="0.49411764705882355" d="M 201.5 232 L 199.5 235 L 201.5 232 Z " /><path fill="rgb(255,255,255)" stroke="rgb(255,255,255)" stroke-width="1" opacity="0.49411764705882355" d="M 195.5 236 L 194.5 238 L 195.5 236 Z " /><path fill="rgb(255,255,255)" stroke="rgb(255,255,255)" stroke-width="1" opacity="0.49411764705882355" d="M 190.5 239 L 189.5 241 L 190.5 239 Z " /><path fill="rgb(255,255,255)" stroke="rgb(255,255,255)" stroke-width="1" opacity="0.49411764705882355" d="M 72.5 243 L 80 246.5 L 78.5 247 L 72.5 244 L 72.5 243 Z " /><path fill="rgb(255,255,255)" stroke="rgb(255,255,255)" stroke-width="1" opacity="0.49411764705882355" d="M 182.5 243 L 184 243.5 L 180.5 245 L 180.5 244 L 182.5 243 Z " /><path fill="rgb(255,255,255)" stroke="rgb(255,255,255)" stroke-width="1" opacity="0.49411764705882355" d="M 81.5 247 L 95 251.5 L 92.5 252 L 81.5 248 L 81.5 247 Z " /><path fill="rgb(255,255,255)" stroke="rgb(255,255,255)" stroke-width="1" opacity="0.49411764705882355" d="M 160.5 251 L 163 251.5 L 160.5 252 L 160.5 251 Z " /><path fill="rgb(255,255,255)" stroke="rgb(255,255,255)" stroke-width="1" opacity="0.49411764705882355" d="M 97.5 252 L 100 252.5 L 97.5 253 L 97.5 252 Z " /><path fill="rgb(255,255,255)" stroke="rgb(255,255,255)" stroke-width="1" opacity="0.49411764705882355" d="M 101.5 253 L 104 253.5 L 101.5 254 L 101.5 253 Z " /><path fill="rgb(255,255,255)" stroke="rgb(255,255,255)" stroke-width="1" opacity="0.49411764705882355" d="M 152.5 253 L 155 253.5 L 152.5 254 L 152.5 253 Z " /><path fill="rgb(255,255,255)" stroke="rgb(255,255,255)" stroke-width="1" opacity="0.49411764705882355" d="M 106.5 254 L 111 254.5 L 106.5 255 L 106.5 254 Z " /><path fill="rgb(255,255,255)" stroke="rgb(255,255,255)" stroke-width="1" opacity="0.49411764705882355" d="M 145.5 254 L 149 254.5 L 145.5 255 L 145.5 254 Z " /><path fill="rgb(255,255,255)" stroke="rgb(255,255,255)" stroke-width="1" opacity="0.49411764705882355" d="M 113.5 255 L 117 255.5 L 113.5 256 L 113.5 255 Z " /><path fill="rgb(255,255,255)" stroke="rgb(255,255,255)" stroke-width="1" opacity="0.49411764705882355" d="M 134.5 255 L 142 255.5 L 134.5 256 L 134.5 255 Z " /><path fill="rgb(255,255,255)" stroke="rgb(255,255,255)" stroke-width="1" opacity="1" d="M 117.5 0 L 133.5 0 L 134.5 1 L 151.5 2 L 175.5 9 Q 205.7 21.3 225 44.5 Q 241.3 62.7 250 88.5 L 255 110.5 L 256 133.5 L 255 134.5 L 255 144.5 L 251 163.5 L 241 188.5 Q 229.2 210.7 210.5 226 Q 192.5 241.5 167.5 250 L 144.5 255 L 117.5 256 L 95.5 252 L 69.5 242 Q 47.1 229.9 31 211.5 Q 14.7 193.3 6 167.5 L 1 145.5 L 0 122.5 L 1 121.5 L 2 104.5 L 12 73.5 Q 24.2 48.2 44.5 31 Q 59.7 17.2 80.5 9 L 95.5 4 L 117.5 0 Z M 115 23 L 91 29 Q 74 35 62 46 Q 43 61 32 84 L 24 108 L 23 127 L 22 128 L 23 129 L 24 148 L 29 166 L 38 184 L 55 205 L 67 214 L 84 224 L 100 230 L 117 233 L 117 24 L 115 23 Z " /></svg>