<svg width="512" height="512" version="1.1" xmlns="http://www.w3.org/2000/svg" desc="Created with imagetracer.js version 1.2.6" ><path fill="rgb(0,0,0)" stroke="rgb(0,0,0)" stroke-width="1" opacity="0" d="M 0 0 L 239 0.5 L 213.5 3 L 190.5 8 Q 165.7 14.7 144.5 25 Q 96.4 48.9 63 87.5 Q 36.9 116.9 20 155.5 L 6 198.5 L 1 227.5 L 0.5 239 L 0 0 Z " /><path fill="rgb(0,0,0)" stroke="rgb(0,0,0)" stroke-width="1" opacity="0" d="M 273.5 0 L 512 0 L 512 238.5 L 511 238.5 L 511 227.5 L 510 226.5 L 509 213.5 L 504 190.5 Q 497.3 165.7 487 144.5 Q 463.1 96.4 424.5 63 Q 395.1 36.9 356.5 20 L 313.5 6 L 284.5 1 L 273.5 1 L 273.5 0 Z " /><path fill="rgb(0,0,0)" stroke="rgb(0,0,0)" stroke-width="1" opacity="0" d="M 280 49 L 297.5 51 L 317.5 56 L 347.5 68 Q 377.8 83.2 401 105.5 Q 431.3 134.2 449 175.5 Q 457.4 195.6 462 219.5 L 462 225.5 L 464 233.5 L 465 262.5 L 464 263.5 L 464 278.5 L 463 279.5 L 461 297.5 L 457 313.5 L 445 345.5 Q 427.1 382.6 398.5 409 Q 376.1 429.6 347.5 444 L 317.5 456 L 297.5 461 L 280 463 L 280 49 Z " /><path fill="rgb(0,0,0)" stroke="rgb(0,0,0)" stroke-width="1" opacity="0" d="M 0.5 273 L 3 298.5 L 8 321.5 Q 14.7 346.3 25 367.5 Q 48.9 415.6 87.5 449 Q 116.9 475.1 155.5 492 L 198.5 506 L 227.5 511 L 239 511.5 L 0 512 L 0.5 273 Z " /><path fill="rgb(0,0,0)" stroke="rgb(0,0,0)" stroke-width="1" opacity="0" d="M 511.5 273 L 512 512 L 273 511.5 L 298.5 509 L 321.5 504 Q 346.3 497.3 367.5 487 Q 415.6 463.1 449 424.5 Q 475.1 395.1 492 356.5 L 506 313.5 L 511 284.5 L 511.5 273 Z " /><path fill="rgb(0,0,0)" stroke="rgb(0,0,0)" stroke-width="1" opacity="0.7411764705882353" d="M 239.5 0 L 251 0.5 L 239.5 1 L 239.5 0 Z " /><path fill="rgb(0,0,0)" stroke="rgb(0,0,0)" stroke-width="1" opacity="0.7411764705882353" d="M 261.5 0 L 273 0.5 L 261.5 1 L 261.5 0 Z " /><path fill="rgb(0,0,0)" stroke="rgb(0,0,0)" stroke-width="1" opacity="0.7411764705882353" d="M 227.5 1 L 232 1.5 L 227.5 2 L 227.5 1 Z " /><path fill="rgb(0,0,0)" stroke="rgb(0,0,0)" stroke-width="1" opacity="0.7411764705882353" d="M 280.5 1 L 285 1.5 L 280.5 2 L 280.5 1 Z " /><path fill="rgb(0,0,0)" stroke="rgb(0,0,0)" stroke-width="1" opacity="0.7411764705882353" d="M 220.5 2 L 224 2.5 L 220.5 3 L 220.5 2 Z " /><path fill="rgb(0,0,0)" stroke="rgb(0,0,0)" stroke-width="1" opacity="0.7411764705882353" d="M 288.5 2 L 292 2.5 L 288.5 3 L 288.5 2 Z " /><path fill="rgb(0,0,0)" stroke="rgb(0,0,0)" stroke-width="1" opacity="0.7411764705882353" d="M 213.5 3 L 216 3.5 L 213.5 4 L 213.5 3 Z " /><path fill="rgb(0,0,0)" stroke="rgb(0,0,0)" stroke-width="1" opacity="0.7411764705882353" d="M 296.5 3 L 299 3.5 L 296.5 4 L 296.5 3 Z " /><path fill="rgb(0,0,0)" stroke="rgb(0,0,0)" stroke-width="1" opacity="0.7411764705882353" d="M 208.5 4 L 211 4.5 L 208.5 5 L 208.5 4 Z " /><path fill="rgb(0,0,0)" stroke="rgb(0,0,0)" stroke-width="1" opacity="0.7411764705882353" d="M 301.5 4 L 304 4.5 L 301.5 5 L 301.5 4 Z " /><path fill="rgb(0,0,0)" stroke="rgb(0,0,0)" stroke-width="1" opacity="0.7411764705882353" d="M 198.5 6 L 201 6.5 L 198.5 7 L 198.5 6 Z " /><path fill="rgb(0,0,0)" stroke="rgb(0,0,0)" stroke-width="1" opacity="0.7411764705882353" d="M 311.5 6 L 314 6.5 L 311.5 7 L 311.5 6 Z " /><path fill="rgb(0,0,0)" stroke="rgb(0,0,0)" stroke-width="1" opacity="0.7411764705882353" d="M 144.5 25 L 143.5 27 L 141.5 28 L 142.5 26 L 144.5 25 Z " /><path fill="rgb(0,0,0)" stroke="rgb(0,0,0)" stroke-width="1" opacity="0.7411764705882353" d="M 367.5 25 L 371 27.5 L 369.5 27 L 367.5 25 Z " /><path fill="rgb(0,0,0)" stroke="rgb(0,0,0)" stroke-width="1" opacity="0.7411764705882353" d="M 129.5 33 L 128.5 35 L 129.5 33 Z " /><path fill="rgb(0,0,0)" stroke="rgb(0,0,0)" stroke-width="1" opacity="0.7411764705882353" d="M 382.5 33 L 383.5 35 L 382.5 33 Z " /><path fill="rgb(0,0,0)" stroke="rgb(0,0,0)" stroke-width="1" opacity="0.7411764705882353" d="M 119.5 39 L 118.5 41 L 119.5 39 Z " /><path fill="rgb(0,0,0)" stroke="rgb(0,0,0)" stroke-width="1" opacity="0.7411764705882353" d="M 392.5 39 L 393.5 41 L 392.5 39 Z " /><path fill="rgb(0,0,0)" stroke="rgb(0,0,0)" stroke-width="1" opacity="0.7411764705882353" d="M 116.5 41 L 115.5 43 L 116.5 41 Z " /><path fill="rgb(0,0,0)" stroke="rgb(0,0,0)" stroke-width="1" opacity="0.7411764705882353" d="M 395.5 41 L 396.5 43 L 395.5 41 Z " /><path fill="rgb(0,0,0)" stroke="rgb(0,0,0)" stroke-width="1" opacity="0.7411764705882353" d="M 113.5 43 L 112.5 45 L 113.5 43 Z " /><path fill="rgb(0,0,0)" stroke="rgb(0,0,0)" stroke-width="1" opacity="0.7411764705882353" d="M 398.5 43 L 399.5 45 L 398.5 43 Z " /><path fill="rgb(0,0,0)" stroke="rgb(0,0,0)" stroke-width="1" opacity="0.7411764705882353" d="M 110.5 45 L 109.5 47 L 110.5 45 Z " /><path fill="rgb(0,0,0)" stroke="rgb(0,0,0)" stroke-width="1" opacity="0.7411764705882353" d="M 401.5 45 L 402.5 47 L 401.5 45 Z " /><path fill="rgb(0,0,0)" stroke="rgb(0,0,0)" stroke-width="1" opacity="0.7411764705882353" d="M 106.5 48 L 105.5 50 L 106.5 48 Z " /><path fill="rgb(0,0,0)" stroke="rgb(0,0,0)" stroke-width="1" opacity="0.7411764705882353" d="M 279 48 L 283 48.5 L 280 49 L 280 462.5 L 282.5 463 L 282.5 464 L 279 463.5 L 279 48 Z " /><path fill="rgb(0,0,0)" stroke="rgb(0,0,0)" stroke-width="1" opacity="0.7411764705882353" d="M 405.5 48 L 406.5 50 L 405.5 48 Z " /><path fill="rgb(0,0,0)" stroke="rgb(0,0,0)" stroke-width="1" opacity="0.7411764705882353" d="M 286.5 49 L 289 49.5 L 286.5 50 L 286.5 49 Z " /><path fill="rgb(0,0,0)" stroke="rgb(0,0,0)" stroke-width="1" opacity="0.7411764705882353" d="M 103.5 50 L 101.5 53 L 103.5 50 Z " /><path fill="rgb(0,0,0)" stroke="rgb(0,0,0)" stroke-width="1" opacity="0.7411764705882353" d="M 292.5 50 L 295 50.5 L 292.5 51 L 292.5 50 Z " /><path fill="rgb(0,0,0)" stroke="rgb(0,0,0)" stroke-width="1" opacity="0.7411764705882353" d="M 408.5 50 L 410.5 53 L 408.5 50 Z " /><path fill="rgb(0,0,0)" stroke="rgb(0,0,0)" stroke-width="1" opacity="0.7411764705882353" d="M 98.5 54 L 97.5 56 L 98.5 54 Z " /><path fill="rgb(0,0,0)" stroke="rgb(0,0,0)" stroke-width="1" opacity="0.7411764705882353" d="M 413.5 54 L 414.5 56 L 413.5 54 Z " /><path fill="rgb(0,0,0)" stroke="rgb(0,0,0)" stroke-width="1" opacity="0.7411764705882353" d="M 94.5 57 L 91.5 61 L 94.5 57 Z " /><path fill="rgb(0,0,0)" stroke="rgb(0,0,0)" stroke-width="1" opacity="0.7411764705882353" d="M 417.5 57 L 420.5 61 L 417.5 57 Z " /><path fill="rgb(0,0,0)" stroke="rgb(0,0,0)" stroke-width="1" opacity="0.7411764705882353" d="M 87.5 63 L 83.5 68 L 87.5 63 Z " /><path fill="rgb(0,0,0)" stroke="rgb(0,0,0)" stroke-width="1" opacity="0.7411764705882353" d="M 424.5 63 L 428.5 68 L 424.5 63 Z " /><path fill="rgb(0,0,0)" stroke="rgb(0,0,0)" stroke-width="1" opacity="0.7411764705882353" d="M 354.5 71 L 355.5 73 L 354.5 71 Z " /><path fill="rgb(0,0,0)" stroke="rgb(0,0,0)" stroke-width="1" opacity="0.7411764705882353" d="M 366.5 78 L 367.5 80 L 366.5 78 Z " /><path fill="rgb(0,0,0)" stroke="rgb(0,0,0)" stroke-width="1" opacity="0.7411764705882353" d="M 369.5 80 L 370.5 82 L 369.5 80 Z " /><path fill="rgb(0,0,0)" stroke="rgb(0,0,0)" stroke-width="1" opacity="0.7411764705882353" d="M 372.5 82 L 373.5 84 L 372.5 82 Z " /><path fill="rgb(0,0,0)" stroke="rgb(0,0,0)" stroke-width="1" opacity="0.7411764705882353" d="M 67.5 83 L 63.5 88 L 67.5 83 Z " /><path fill="rgb(0,0,0)" stroke="rgb(0,0,0)" stroke-width="1" opacity="0.7411764705882353" d="M 444.5 83 L 448.5 88 L 444.5 83 Z " /><path fill="rgb(0,0,0)" stroke="rgb(0,0,0)" stroke-width="1" opacity="0.7411764705882353" d="M 375.5 84 L 376.5 86 L 375.5 84 Z " /><path fill="rgb(0,0,0)" stroke="rgb(0,0,0)" stroke-width="1" opacity="0.7411764705882353" d="M 379.5 87 L 380.5 89 L 379.5 87 Z " /><path fill="rgb(0,0,0)" stroke="rgb(0,0,0)" stroke-width="1" opacity="0.7411764705882353" d="M 382.5 89 L 383.5 91 L 382.5 89 Z " /><path fill="rgb(0,0,0)" stroke="rgb(0,0,0)" stroke-width="1" opacity="0.7411764705882353" d="M 60.5 91 L 57.5 95 L 60.5 91 Z " /><path fill="rgb(0,0,0)" stroke="rgb(0,0,0)" stroke-width="1" opacity="0.7411764705882353" d="M 451.5 91 L 454.5 95 L 451.5 91 Z " /><path fill="rgb(0,0,0)" stroke="rgb(0,0,0)" stroke-width="1" opacity="0.7411764705882353" d="M 387.5 93 L 390.5 97 L 387.5 93 Z " /><path fill="rgb(0,0,0)" stroke="rgb(0,0,0)" stroke-width="1" opacity="0.7411764705882353" d="M 55.5 97 L 54.5 99 L 55.5 97 Z " /><path fill="rgb(0,0,0)" stroke="rgb(0,0,0)" stroke-width="1" opacity="0.7411764705882353" d="M 456.5 97 L 457.5 99 L 456.5 97 Z " /><path fill="rgb(0,0,0)" stroke="rgb(0,0,0)" stroke-width="1" opacity="0.7411764705882353" d="M 394.5 99 L 397.5 103 L 394.5 99 Z " /><path fill="rgb(0,0,0)" stroke="rgb(0,0,0)" stroke-width="1" opacity="0.7411764705882353" d="M 52.5 101 L 50.5 104 L 52.5 101 Z " /><path fill="rgb(0,0,0)" stroke="rgb(0,0,0)" stroke-width="1" opacity="0.7411764705882353" d="M 459.5 101 L 461.5 104 L 459.5 101 Z " /><path fill="rgb(0,0,0)" stroke="rgb(0,0,0)" stroke-width="1" opacity="0.7411764705882353" d="M 49.5 105 L 48.5 107 L 49.5 105 Z " /><path fill="rgb(0,0,0)" stroke="rgb(0,0,0)" stroke-width="1" opacity="0.7411764705882353" d="M 462.5 105 L 463.5 107 L 462.5 105 Z " /><path fill="rgb(0,0,0)" stroke="rgb(0,0,0)" stroke-width="1" opacity="0.7411764705882353" d="M 401.5 106 L 413.5 119 L 401.5 106 Z " /><path fill="rgb(0,0,0)" stroke="rgb(0,0,0)" stroke-width="1" opacity="0.7411764705882353" d="M 46.5 109 L 45.5 111 L 46.5 109 Z " /><path fill="rgb(0,0,0)" stroke="rgb(0,0,0)" stroke-width="1" opacity="0.7411764705882353" d="M 465.5 109 L 466.5 111 L 465.5 109 Z " /><path fill="rgb(0,0,0)" stroke="rgb(0,0,0)" stroke-width="1" opacity="0.7411764705882353" d="M 44.5 112 L 43.5 114 L 44.5 112 Z " /><path fill="rgb(0,0,0)" stroke="rgb(0,0,0)" stroke-width="1" opacity="0.7411764705882353" d="M 467.5 112 L 468.5 114 L 467.5 112 Z " /><path fill="rgb(0,0,0)" stroke="rgb(0,0,0)" stroke-width="1" opacity="0.7411764705882353" d="M 42.5 115 L 41.5 117 L 42.5 115 Z " /><path fill="rgb(0,0,0)" stroke="rgb(0,0,0)" stroke-width="1" opacity="0.7411764705882353" d="M 469.5 115 L 470.5 117 L 469.5 115 Z " /><path fill="rgb(0,0,0)" stroke="rgb(0,0,0)" stroke-width="1" opacity="0.7411764705882353" d="M 40.5 118 L 39.5 120 L 40.5 118 Z " /><path fill="rgb(0,0,0)" stroke="rgb(0,0,0)" stroke-width="1" opacity="0.7411764705882353" d="M 471.5 118 L 472.5 120 L 471.5 118 Z " /><path fill="rgb(0,0,0)" stroke="rgb(0,0,0)" stroke-width="1" opacity="0.7411764705882353" d="M 415.5 121 L 417.5 124 L 415.5 121 Z " /><path fill="rgb(0,0,0)" stroke="rgb(0,0,0)" stroke-width="1" opacity="0.7411764705882353" d="M 420.5 127 L 422.5 130 L 420.5 127 Z " /><path fill="rgb(0,0,0)" stroke="rgb(0,0,0)" stroke-width="1" opacity="0.7411764705882353" d="M 34.5 128 L 33.5 130 L 34.5 128 Z " /><path fill="rgb(0,0,0)" stroke="rgb(0,0,0)" stroke-width="1" opacity="0.7411764705882353" d="M 477.5 128 L 478.5 130 L 477.5 128 Z " /><path fill="rgb(0,0,0)" stroke="rgb(0,0,0)" stroke-width="1" opacity="0.7411764705882353" d="M 426.5 135 L 427.5 137 L 426.5 135 Z " /><path fill="rgb(0,0,0)" stroke="rgb(0,0,0)" stroke-width="1" opacity="0.7411764705882353" d="M 428.5 138 L 429.5 140 L 428.5 138 Z " /><path fill="rgb(0,0,0)" stroke="rgb(0,0,0)" stroke-width="1" opacity="0.7411764705882353" d="M 27.5 141 L 27 142.5 L 25.5 145 L 26 143.5 L 27.5 141 Z " /><path fill="rgb(0,0,0)" stroke="rgb(0,0,0)" stroke-width="1" opacity="0.7411764705882353" d="M 430.5 141 L 431.5 143 L 430.5 141 Z " /><path fill="rgb(0,0,0)" stroke="rgb(0,0,0)" stroke-width="1" opacity="0.7411764705882353" d="M 484.5 141 L 487 144.5 L 485 143.5 L 484.5 141 Z " /><path fill="rgb(0,0,0)" stroke="rgb(0,0,0)" stroke-width="1" opacity="0.7411764705882353" d="M 432.5 144 L 433.5 146 L 432.5 144 Z " /><path fill="rgb(0,0,0)" stroke="rgb(0,0,0)" stroke-width="1" opacity="0.7411764705882353" d="M 435.5 149 L 436.5 151 L 435.5 149 Z " /><path fill="rgb(0,0,0)" stroke="rgb(0,0,0)" stroke-width="1" opacity="0.7411764705882353" d="M 440.5 158 L 441.5 160 L 440.5 158 Z " /><path fill="rgb(0,0,0)" stroke="rgb(0,0,0)" stroke-width="1" opacity="0.7411764705882353" d="M 6.5 198 L 7 200.5 L 6 200.5 L 6.5 198 Z " /><path fill="rgb(0,0,0)" stroke="rgb(0,0,0)" stroke-width="1" opacity="0.7411764705882353" d="M 505.5 198 L 506 200.5 L 505 200.5 L 505.5 198 Z " /><path fill="rgb(0,0,0)" stroke="rgb(0,0,0)" stroke-width="1" opacity="0.7411764705882353" d="M 457.5 199 L 458 201.5 L 457 201.5 L 457.5 199 Z " /><path fill="rgb(0,0,0)" stroke="rgb(0,0,0)" stroke-width="1" opacity="0.7411764705882353" d="M 4.5 208 L 5 210.5 L 4 210.5 L 4.5 208 Z " /><path fill="rgb(0,0,0)" stroke="rgb(0,0,0)" stroke-width="1" opacity="0.7411764705882353" d="M 507.5 208 L 508 210.5 L 507 210.5 L 507.5 208 Z " /><path fill="rgb(0,0,0)" stroke="rgb(0,0,0)" stroke-width="1" opacity="0.7411764705882353" d="M 3.5 213 L 4 215.5 L 3 215.5 L 3.5 213 Z " /><path fill="rgb(0,0,0)" stroke="rgb(0,0,0)" stroke-width="1" opacity="0.7411764705882353" d="M 508.5 213 L 509 215.5 L 508 215.5 L 508.5 213 Z " /><path fill="rgb(0,0,0)" stroke="rgb(0,0,0)" stroke-width="1" opacity="0.7411764705882353" d="M 461.5 216 L 462 218.5 L 461 218.5 L 461.5 216 Z " /><path fill="rgb(0,0,0)" stroke="rgb(0,0,0)" stroke-width="1" opacity="0.7411764705882353" d="M 2.5 220 L 3 223.5 L 2 223.5 L 2.5 220 Z " /><path fill="rgb(0,0,0)" stroke="rgb(0,0,0)" stroke-width="1" opacity="0.7411764705882353" d="M 509.5 220 L 510 223.5 L 509 223.5 L 509.5 220 Z " /><path fill="rgb(0,0,0)" stroke="rgb(0,0,0)" stroke-width="1" opacity="0.7411764705882353" d="M 462.5 223 L 463 225.5 L 462 225.5 L 462.5 223 Z " /><path fill="rgb(0,0,0)" stroke="rgb(0,0,0)" stroke-width="1" opacity="0.7411764705882353" d="M 1.5 227 L 2 231.5 L 1 231.5 L 1.5 227 Z " /><path fill="rgb(0,0,0)" stroke="rgb(0,0,0)" stroke-width="1" opacity="0.7411764705882353" d="M 510.5 227 L 511 231.5 L 510 231.5 L 510.5 227 Z " /><path fill="rgb(0,0,0)" stroke="rgb(0,0,0)" stroke-width="1" opacity="0.7411764705882353" d="M 463.5 230 L 464 232.5 L 463 232.5 L 463.5 230 Z " /><path fill="rgb(0,0,0)" stroke="rgb(0,0,0)" stroke-width="1" opacity="0.7411764705882353" d="M 464.5 238 L 465 248.5 L 464 248.5 L 464.5 238 Z " /><path fill="rgb(0,0,0)" stroke="rgb(0,0,0)" stroke-width="1" opacity="0.7411764705882353" d="M 0.5 239 L 1 250.5 L 0 250.5 L 0.5 239 Z " /><path fill="rgb(0,0,0)" stroke="rgb(0,0,0)" stroke-width="1" opacity="0.7411764705882353" d="M 511.5 239 L 512 250.5 L 511 250.5 L 511.5 239 Z " /><path fill="rgb(0,0,0)" stroke="rgb(0,0,0)" stroke-width="1" opacity="0.7411764705882353" d="M 0.5 261 L 1 272.5 L 0 272.5 L 0.5 261 Z " /><path fill="rgb(0,0,0)" stroke="rgb(0,0,0)" stroke-width="1" opacity="0.7411764705882353" d="M 511.5 261 L 512 272.5 L 511 272.5 L 511.5 261 Z " /><path fill="rgb(0,0,0)" stroke="rgb(0,0,0)" stroke-width="1" opacity="0.7411764705882353" d="M 464.5 263 L 465 273.5 L 464 273.5 L 464.5 263 Z " /><path fill="rgb(0,0,0)" stroke="rgb(0,0,0)" stroke-width="1" opacity="0.7411764705882353" d="M 463.5 279 L 464 281.5 L 463 281.5 L 463.5 279 Z " /><path fill="rgb(0,0,0)" stroke="rgb(0,0,0)" stroke-width="1" opacity="0.7411764705882353" d="M 1.5 280 L 2 284.5 L 1 284.5 L 1.5 280 Z " /><path fill="rgb(0,0,0)" stroke="rgb(0,0,0)" stroke-width="1" opacity="0.7411764705882353" d="M 510.5 280 L 511 284.5 L 510 284.5 L 510.5 280 Z " /><path fill="rgb(0,0,0)" stroke="rgb(0,0,0)" stroke-width="1" opacity="0.7411764705882353" d="M 462.5 286 L 463 288.5 L 462 288.5 L 462.5 286 Z " /><path fill="rgb(0,0,0)" stroke="rgb(0,0,0)" stroke-width="1" opacity="0.7411764705882353" d="M 2.5 288 L 3 291.5 L 2 291.5 L 2.5 288 Z " /><path fill="rgb(0,0,0)" stroke="rgb(0,0,0)" stroke-width="1" opacity="0.7411764705882353" d="M 509.5 288 L 510 291.5 L 509 291.5 L 509.5 288 Z " /><path fill="rgb(0,0,0)" stroke="rgb(0,0,0)" stroke-width="1" opacity="0.7411764705882353" d="M 461.5 293 L 462 295.5 L 461 295.5 L 461.5 293 Z " /><path fill="rgb(0,0,0)" stroke="rgb(0,0,0)" stroke-width="1" opacity="0.7411764705882353" d="M 3.5 296 L 4 298.5 L 3 298.5 L 3.5 296 Z " /><path fill="rgb(0,0,0)" stroke="rgb(0,0,0)" stroke-width="1" opacity="0.7411764705882353" d="M 508.5 296 L 509 298.5 L 508 298.5 L 508.5 296 Z " /><path fill="rgb(0,0,0)" stroke="rgb(0,0,0)" stroke-width="1" opacity="0.7411764705882353" d="M 4.5 301 L 5 303.5 L 4 303.5 L 4.5 301 Z " /><path fill="rgb(0,0,0)" stroke="rgb(0,0,0)" stroke-width="1" opacity="0.7411764705882353" d="M 507.5 301 L 508 303.5 L 507 303.5 L 507.5 301 Z " /><path fill="rgb(0,0,0)" stroke="rgb(0,0,0)" stroke-width="1" opacity="0.7411764705882353" d="M 457.5 310 L 458 312.5 L 457 312.5 L 457.5 310 Z " /><path fill="rgb(0,0,0)" stroke="rgb(0,0,0)" stroke-width="1" opacity="0.7411764705882353" d="M 6.5 311 L 7 313.5 L 6 313.5 L 6.5 311 Z " /><path fill="rgb(0,0,0)" stroke="rgb(0,0,0)" stroke-width="1" opacity="0.7411764705882353" d="M 505.5 311 L 506 313.5 L 505 313.5 L 505.5 311 Z " /><path fill="rgb(0,0,0)" stroke="rgb(0,0,0)" stroke-width="1" opacity="0.7411764705882353" d="M 441.5 352 L 440.5 354 L 441.5 352 Z " /><path fill="rgb(0,0,0)" stroke="rgb(0,0,0)" stroke-width="1" opacity="0.7411764705882353" d="M 436.5 361 L 435.5 363 L 436.5 361 Z " /><path fill="rgb(0,0,0)" stroke="rgb(0,0,0)" stroke-width="1" opacity="0.7411764705882353" d="M 433.5 366 L 432.5 368 L 433.5 366 Z " /><path fill="rgb(0,0,0)" stroke="rgb(0,0,0)" stroke-width="1" opacity="0.7411764705882353" d="M 25.5 367 L 28 370.5 L 26 369.5 L 25.5 367 Z " /><path fill="rgb(0,0,0)" stroke="rgb(0,0,0)" stroke-width="1" opacity="0.7411764705882353" d="M 486.5 367 L 486 368.5 L 484.5 371 L 485 369.5 L 486.5 367 Z " /><path fill="rgb(0,0,0)" stroke="rgb(0,0,0)" stroke-width="1" opacity="0.7411764705882353" d="M 431.5 369 L 430.5 371 L 431.5 369 Z " /><path fill="rgb(0,0,0)" stroke="rgb(0,0,0)" stroke-width="1" opacity="0.7411764705882353" d="M 429.5 372 L 428.5 374 L 429.5 372 Z " /><path fill="rgb(0,0,0)" stroke="rgb(0,0,0)" stroke-width="1" opacity="0.7411764705882353" d="M 427.5 375 L 426.5 377 L 427.5 375 Z " /><path fill="rgb(0,0,0)" stroke="rgb(0,0,0)" stroke-width="1" opacity="0.7411764705882353" d="M 33.5 382 L 34.5 384 L 33.5 382 Z " /><path fill="rgb(0,0,0)" stroke="rgb(0,0,0)" stroke-width="1" opacity="0.7411764705882353" d="M 422.5 382 L 420.5 385 L 422.5 382 Z " /><path fill="rgb(0,0,0)" stroke="rgb(0,0,0)" stroke-width="1" opacity="0.7411764705882353" d="M 478.5 382 L 477.5 384 L 478.5 382 Z " /><path fill="rgb(0,0,0)" stroke="rgb(0,0,0)" stroke-width="1" opacity="0.7411764705882353" d="M 417.5 388 L 415.5 391 L 417.5 388 Z " /><path fill="rgb(0,0,0)" stroke="rgb(0,0,0)" stroke-width="1" opacity="0.7411764705882353" d="M 39.5 392 L 40.5 394 L 39.5 392 Z " /><path fill="rgb(0,0,0)" stroke="rgb(0,0,0)" stroke-width="1" opacity="0.7411764705882353" d="M 472.5 392 L 471.5 394 L 472.5 392 Z " /><path fill="rgb(0,0,0)" stroke="rgb(0,0,0)" stroke-width="1" opacity="0.7411764705882353" d="M 413.5 393 L 401.5 406 L 413.5 393 Z " /><path fill="rgb(0,0,0)" stroke="rgb(0,0,0)" stroke-width="1" opacity="0.7411764705882353" d="M 41.5 395 L 42.5 397 L 41.5 395 Z " /><path fill="rgb(0,0,0)" stroke="rgb(0,0,0)" stroke-width="1" opacity="0.7411764705882353" d="M 470.5 395 L 469.5 397 L 470.5 395 Z " /><path fill="rgb(0,0,0)" stroke="rgb(0,0,0)" stroke-width="1" opacity="0.7411764705882353" d="M 43.5 398 L 44.5 400 L 43.5 398 Z " /><path fill="rgb(0,0,0)" stroke="rgb(0,0,0)" stroke-width="1" opacity="0.7411764705882353" d="M 468.5 398 L 467.5 400 L 468.5 398 Z " /><path fill="rgb(0,0,0)" stroke="rgb(0,0,0)" stroke-width="1" opacity="0.7411764705882353" d="M 45.5 401 L 46.5 403 L 45.5 401 Z " /><path fill="rgb(0,0,0)" stroke="rgb(0,0,0)" stroke-width="1" opacity="0.7411764705882353" d="M 466.5 401 L 465.5 403 L 466.5 401 Z " /><path fill="rgb(0,0,0)" stroke="rgb(0,0,0)" stroke-width="1" opacity="0.7411764705882353" d="M 48.5 405 L 49.5 407 L 48.5 405 Z " /><path fill="rgb(0,0,0)" stroke="rgb(0,0,0)" stroke-width="1" opacity="0.7411764705882353" d="M 463.5 405 L 462.5 407 L 463.5 405 Z " /><path fill="rgb(0,0,0)" stroke="rgb(0,0,0)" stroke-width="1" opacity="0.7411764705882353" d="M 50.5 408 L 52.5 411 L 50.5 408 Z " /><path fill="rgb(0,0,0)" stroke="rgb(0,0,0)" stroke-width="1" opacity="0.7411764705882353" d="M 461.5 408 L 459.5 411 L 461.5 408 Z " /><path fill="rgb(0,0,0)" stroke="rgb(0,0,0)" stroke-width="1" opacity="0.7411764705882353" d="M 397.5 409 L 394.5 413 L 397.5 409 Z " /><path fill="rgb(0,0,0)" stroke="rgb(0,0,0)" stroke-width="1" opacity="0.7411764705882353" d="M 54.5 413 L 55.5 415 L 54.5 413 Z " /><path fill="rgb(0,0,0)" stroke="rgb(0,0,0)" stroke-width="1" opacity="0.7411764705882353" d="M 457.5 413 L 456.5 415 L 457.5 413 Z " /><path fill="rgb(0,0,0)" stroke="rgb(0,0,0)" stroke-width="1" opacity="0.7411764705882353" d="M 390.5 415 L 387.5 419 L 390.5 415 Z " /><path fill="rgb(0,0,0)" stroke="rgb(0,0,0)" stroke-width="1" opacity="0.7411764705882353" d="M 57.5 417 L 60.5 421 L 57.5 417 Z " /><path fill="rgb(0,0,0)" stroke="rgb(0,0,0)" stroke-width="1" opacity="0.7411764705882353" d="M 454.5 417 L 451.5 421 L 454.5 417 Z " /><path fill="rgb(0,0,0)" stroke="rgb(0,0,0)" stroke-width="1" opacity="0.7411764705882353" d="M 383.5 421 L 382.5 423 L 383.5 421 Z " /><path fill="rgb(0,0,0)" stroke="rgb(0,0,0)" stroke-width="1" opacity="0.7411764705882353" d="M 380.5 423 L 379.5 425 L 380.5 423 Z " /><path fill="rgb(0,0,0)" stroke="rgb(0,0,0)" stroke-width="1" opacity="0.7411764705882353" d="M 63.5 424 L 67.5 429 L 63.5 424 Z " /><path fill="rgb(0,0,0)" stroke="rgb(0,0,0)" stroke-width="1" opacity="0.7411764705882353" d="M 448.5 424 L 444.5 429 L 448.5 424 Z " /><path fill="rgb(0,0,0)" stroke="rgb(0,0,0)" stroke-width="1" opacity="0.7411764705882353" d="M 376.5 426 L 375.5 428 L 376.5 426 Z " /><path fill="rgb(0,0,0)" stroke="rgb(0,0,0)" stroke-width="1" opacity="0.7411764705882353" d="M 373.5 428 L 372.5 430 L 373.5 428 Z " /><path fill="rgb(0,0,0)" stroke="rgb(0,0,0)" stroke-width="1" opacity="0.7411764705882353" d="M 370.5 430 L 369.5 432 L 370.5 430 Z " /><path fill="rgb(0,0,0)" stroke="rgb(0,0,0)" stroke-width="1" opacity="0.7411764705882353" d="M 367.5 432 L 366.5 434 L 367.5 432 Z " /><path fill="rgb(0,0,0)" stroke="rgb(0,0,0)" stroke-width="1" opacity="0.7411764705882353" d="M 355.5 439 L 354.5 441 L 355.5 439 Z " /><path fill="rgb(0,0,0)" stroke="rgb(0,0,0)" stroke-width="1" opacity="0.7411764705882353" d="M 83.5 444 L 87.5 449 L 83.5 444 Z " /><path fill="rgb(0,0,0)" stroke="rgb(0,0,0)" stroke-width="1" opacity="0.7411764705882353" d="M 428.5 444 L 424.5 449 L 428.5 444 Z " /><path fill="rgb(0,0,0)" stroke="rgb(0,0,0)" stroke-width="1" opacity="0.7411764705882353" d="M 91.5 451 L 94.5 455 L 91.5 451 Z " /><path fill="rgb(0,0,0)" stroke="rgb(0,0,0)" stroke-width="1" opacity="0.7411764705882353" d="M 420.5 451 L 417.5 455 L 420.5 451 Z " /><path fill="rgb(0,0,0)" stroke="rgb(0,0,0)" stroke-width="1" opacity="0.7411764705882353" d="M 97.5 456 L 98.5 458 L 97.5 456 Z " /><path fill="rgb(0,0,0)" stroke="rgb(0,0,0)" stroke-width="1" opacity="0.7411764705882353" d="M 414.5 456 L 413.5 458 L 414.5 456 Z " /><path fill="rgb(0,0,0)" stroke="rgb(0,0,0)" stroke-width="1" opacity="0.7411764705882353" d="M 101.5 459 L 103.5 462 L 101.5 459 Z " /><path fill="rgb(0,0,0)" stroke="rgb(0,0,0)" stroke-width="1" opacity="0.7411764705882353" d="M 410.5 459 L 408.5 462 L 410.5 459 Z " /><path fill="rgb(0,0,0)" stroke="rgb(0,0,0)" stroke-width="1" opacity="0.7411764705882353" d="M 292.5 461 L 295 461.5 L 292.5 462 L 292.5 461 Z " /><path fill="rgb(0,0,0)" stroke="rgb(0,0,0)" stroke-width="1" opacity="0.7411764705882353" d="M 105.5 462 L 106.5 464 L 105.5 462 Z " /><path fill="rgb(0,0,0)" stroke="rgb(0,0,0)" stroke-width="1" opacity="0.7411764705882353" d="M 286.5 462 L 289 462.5 L 286.5 463 L 286.5 462 Z " /><path fill="rgb(0,0,0)" stroke="rgb(0,0,0)" stroke-width="1" opacity="0.7411764705882353" d="M 406.5 462 L 405.5 464 L 406.5 462 Z " /><path fill="rgb(0,0,0)" stroke="rgb(0,0,0)" stroke-width="1" opacity="0.7411764705882353" d="M 109.5 465 L 110.5 467 L 109.5 465 Z " /><path fill="rgb(0,0,0)" stroke="rgb(0,0,0)" stroke-width="1" opacity="0.7411764705882353" d="M 402.5 465 L 401.5 467 L 402.5 465 Z " /><path fill="rgb(0,0,0)" stroke="rgb(0,0,0)" stroke-width="1" opacity="0.7411764705882353" d="M 112.5 467 L 113.5 469 L 112.5 467 Z " /><path fill="rgb(0,0,0)" stroke="rgb(0,0,0)" stroke-width="1" opacity="0.7411764705882353" d="M 399.5 467 L 398.5 469 L 399.5 467 Z " /><path fill="rgb(0,0,0)" stroke="rgb(0,0,0)" stroke-width="1" opacity="0.7411764705882353" d="M 115.5 469 L 116.5 471 L 115.5 469 Z " /><path fill="rgb(0,0,0)" stroke="rgb(0,0,0)" stroke-width="1" opacity="0.7411764705882353" d="M 396.5 469 L 395.5 471 L 396.5 469 Z " /><path fill="rgb(0,0,0)" stroke="rgb(0,0,0)" stroke-width="1" opacity="0.7411764705882353" d="M 118.5 471 L 119.5 473 L 118.5 471 Z " /><path fill="rgb(0,0,0)" stroke="rgb(0,0,0)" stroke-width="1" opacity="0.7411764705882353" d="M 393.5 471 L 392.5 473 L 393.5 471 Z " /><path fill="rgb(0,0,0)" stroke="rgb(0,0,0)" stroke-width="1" opacity="0.7411764705882353" d="M 128.5 477 L 129.5 479 L 128.5 477 Z " /><path fill="rgb(0,0,0)" stroke="rgb(0,0,0)" stroke-width="1" opacity="0.7411764705882353" d="M 383.5 477 L 382.5 479 L 383.5 477 Z " /><path fill="rgb(0,0,0)" stroke="rgb(0,0,0)" stroke-width="1" opacity="0.7411764705882353" d="M 141.5 484 L 145 486.5 L 143.5 486 L 141.5 484 Z " /><path fill="rgb(0,0,0)" stroke="rgb(0,0,0)" stroke-width="1" opacity="0.7411764705882353" d="M 370.5 484 L 369.5 486 L 367.5 487 L 368.5 485 L 370.5 484 Z " /><path fill="rgb(0,0,0)" stroke="rgb(0,0,0)" stroke-width="1" opacity="0.7411764705882353" d="M 198.5 505 L 201 505.5 L 198.5 506 L 198.5 505 Z " /><path fill="rgb(0,0,0)" stroke="rgb(0,0,0)" stroke-width="1" opacity="0.7411764705882353" d="M 311.5 505 L 314 505.5 L 311.5 506 L 311.5 505 Z " /><path fill="rgb(0,0,0)" stroke="rgb(0,0,0)" stroke-width="1" opacity="0.7411764705882353" d="M 208.5 507 L 211 507.5 L 208.5 508 L 208.5 507 Z " /><path fill="rgb(0,0,0)" stroke="rgb(0,0,0)" stroke-width="1" opacity="0.7411764705882353" d="M 301.5 507 L 304 507.5 L 301.5 508 L 301.5 507 Z " /><path fill="rgb(0,0,0)" stroke="rgb(0,0,0)" stroke-width="1" opacity="0.7411764705882353" d="M 213.5 508 L 216 508.5 L 213.5 509 L 213.5 508 Z " /><path fill="rgb(0,0,0)" stroke="rgb(0,0,0)" stroke-width="1" opacity="0.7411764705882353" d="M 296.5 508 L 299 508.5 L 296.5 509 L 296.5 508 Z " /><path fill="rgb(0,0,0)" stroke="rgb(0,0,0)" stroke-width="1" opacity="0.7411764705882353" d="M 220.5 509 L 224 509.5 L 220.5 510 L 220.5 509 Z " /><path fill="rgb(0,0,0)" stroke="rgb(0,0,0)" stroke-width="1" opacity="0.7411764705882353" d="M 288.5 509 L 292 509.5 L 288.5 510 L 288.5 509 Z " /><path fill="rgb(0,0,0)" stroke="rgb(0,0,0)" stroke-width="1" opacity="0.7411764705882353" d="M 227.5 510 L 232 510.5 L 227.5 511 L 227.5 510 Z " /><path fill="rgb(0,0,0)" stroke="rgb(0,0,0)" stroke-width="1" opacity="0.7411764705882353" d="M 280.5 510 L 285 510.5 L 280.5 511 L 280.5 510 Z " /><path fill="rgb(0,0,0)" stroke="rgb(0,0,0)" stroke-width="1" opacity="0.7411764705882353" d="M 239.5 511 L 251 511.5 L 239.5 512 L 239.5 511 Z " /><path fill="rgb(0,0,0)" stroke="rgb(0,0,0)" stroke-width="1" opacity="0.7411764705882353" d="M 261.5 511 L 273 511.5 L 261.5 512 L 261.5 511 Z " /><path fill="rgb(0,0,0)" stroke="rgb(0,0,0)" stroke-width="1" opacity="1" d="M 251.5 0 L 279.5 1 L 280.5 2 L 287.5 2 L 288.5 3 L 306.5 5 L 330.5 11 L 357.5 21 Q 408.6 43.9 444 82.5 Q 478 118.5 497 169.5 L 503 188.5 L 509 216.5 L 509 223.5 L 511 232.5 L 512 260.5 L 511 261.5 L 511 279.5 L 510 280.5 L 509 295.5 L 505 315.5 L 497 342.5 L 487 366.5 Q 464.6 411.6 429.5 444 Q 393.5 478 342.5 497 L 323.5 503 L 295.5 509 L 288.5 509 L 279.5 511 L 251.5 512 L 250.5 511 L 232.5 511 L 231.5 510 L 216.5 509 L 196.5 505 L 169.5 497 L 145.5 487 Q 100.4 464.6 68 429.5 Q 34 393.5 15 342.5 L 9 323.5 L 3 295.5 L 3 288.5 L 1 279.5 L 0 251.5 L 1 250.5 L 1 232.5 L 2 231.5 L 3 216.5 L 7 196.5 L 15 169.5 L 25 145.5 Q 47.4 100.4 82.5 68 Q 113.1 39.1 154.5 21 L 181.5 11 L 205.5 5 L 223.5 3 L 224.5 2 L 231.5 2 L 232.5 1 L 250.5 1 L 251.5 0 Z M 279 48 L 279 464 L 295 462 L 316 457 L 336 450 Q 369 436 395 413 Q 423 388 442 353 L 452 331 L 458 313 L 458 309 L 462 296 L 464 275 L 465 274 L 465 239 L 464 238 L 462 217 L 458 204 L 458 200 Q 444 151 414 119 Q 389 90 355 71 L 336 62 L 316 55 L 295 50 L 279 48 Z " /></svg>