<svg width="256" height="256" version="1.1" xmlns="http://www.w3.org/2000/svg" desc="Created with imagetracer.js version 1.2.6" ><path fill="rgb(255,255,255)" stroke="rgb(255,255,255)" stroke-width="1" opacity="0.9490196078431372" d="M 113.5 0 L 142.5 0 L 166.5 5 L 177.5 9 Q 206 21.5 225 43.5 L 240 64.5 L 251 89.5 L 256 113.5 L 256 142.5 L 251 166.5 L 240 191.5 Q 229 210 213.5 224 Q 192.9 242.9 162.5 252 L 141.5 256 L 113.5 256 L 89.5 251 L 67.5 242 Q 44.2 229.4 28 209.5 Q 12 190.5 4 163.5 L 0 142.5 L 0 114.5 L 4 93.5 Q 8.5 77.5 16 64.5 Q 27.2 45.2 43.5 31 Q 58.6 17.6 78.5 9 L 89.5 5 L 113.5 0 Z M 128 15 L 121 18 L 109 33 L 104 44 L 98 63 L 157 63 L 149 38 L 142 26 L 134 17 L 128 15 Z M 95 20 Q 70 28 53 44 L 36 63 L 82 63 L 89 39 L 98 22 Q 99 18 95 20 Z M 158 20 L 166 37 L 173 62 L 175 63 L 219 63 L 215 57 Q 203 41 186 31 L 170 23 L 158 20 Z M 26 79 L 19 99 L 16 115 Q 15 120 17 120 L 75 120 L 76 115 L 76 99 L 79 82 L 79 79 L 26 79 Z M 95 79 L 92 98 L 92 110 L 91 111 L 91 120 L 92 120 L 165 120 L 164 118 L 164 102 L 163 101 L 163 93 L 161 84 Q 161 79 161 79 L 95 79 Z M 177 79 L 178 93 L 179 94 L 179 103 L 180 104 L 180 120 L 181 120 L 240 120 L 237 99 L 230 81 L 229 79 L 177 79 Z M 16 136 Q 17 161 27 178 L 28 179 L 79 179 L 77 168 L 77 160 L 76 159 L 76 145 L 75 144 L 75 137 L 75 136 L 16 136 Z M 91 136 L 92 159 L 95 175 Q 94 179 96 179 L 161 179 L 162 166 L 163 165 L 163 156 L 164 155 L 164 139 L 165 138 L 165 136 L 91 136 Z M 180 136 L 180 154 L 179 155 L 178 172 L 177 173 Q 176 179 178 179 L 229 179 L 237 158 L 240 143 Q 241 136 240 136 L 180 136 Z M 39 195 L 47 207 Q 66 227 96 236 L 98 236 Q 87 219 83 197 L 82 195 L 39 195 Z M 99 195 Q 103 217 115 233 Q 119 239 128 241 L 137 237 L 145 227 L 153 210 L 157 197 L 157 195 L 99 195 Z M 173 195 Q 168 219 158 236 L 179 229 Q 194 221 206 210 L 218 196 L 173 195 Z " /><path fill="rgb(0,0,0)" stroke="rgb(0,0,0)" stroke-width="1" opacity="0" d="M 0 0 L 113 0.5 L 89.5 5 L 64.5 16 Q 45.1 27.1 31 43.5 Q 18.3 57.8 10 76.5 L 4 93.5 L 0.5 114 L 0 0 Z " /><path fill="rgb(0,0,0)" stroke="rgb(0,0,0)" stroke-width="1" opacity="0" d="M 143.5 0 L 256 0 L 256 112.5 L 255 112.5 L 255 106.5 L 251 89.5 L 240 64.5 Q 228.9 45.1 212.5 31 Q 197.4 17.6 177.5 9 L 154.5 2 L 143.5 1 L 143.5 0 Z " /><path fill="rgb(0,0,0)" stroke="rgb(0,0,0)" stroke-width="1" opacity="0" d="M 127.5 15 L 133.5 17 L 142 25.5 L 149 37.5 L 157 63 L 98 62.5 L 104 43.5 L 109 32.5 L 120.5 18 L 127.5 15 Z " /><path fill="rgb(0,0,0)" stroke="rgb(0,0,0)" stroke-width="1" opacity="0" d="M 98.5 19 L 98 20.5 L 89 38.5 L 82 63 L 36 62.5 L 52.5 44 Q 70.9 26.9 98.5 19 Z " /><path fill="rgb(0,0,0)" stroke="rgb(0,0,0)" stroke-width="1" opacity="0" d="M 158 20 L 169.5 23 L 185.5 31 Q 202.5 41.5 215 56.5 L 219 62.5 L 174.5 63 L 173 61.5 L 166 36.5 L 158 20 Z " /><path fill="rgb(0,0,0)" stroke="rgb(0,0,0)" stroke-width="1" opacity="0" d="M 26 79 L 78.5 79 L 79 81.5 L 76 98.5 L 76 114.5 L 75 120 L 16.5 120 Q 15.4 119.9 16 114.5 L 19 98.5 L 26 79 Z " /><path fill="rgb(0,0,0)" stroke="rgb(0,0,0)" stroke-width="1" opacity="0" d="M 95 79 L 160.5 79 Q 161.5 79 161 83.5 L 163 92.5 L 163 100.5 L 164 101.5 L 164 117.5 L 165 120 L 91.5 120 L 91 119.5 L 91 110.5 L 92 109.5 L 92 97.5 L 95 79 Z " /><path fill="rgb(0,0,0)" stroke="rgb(0,0,0)" stroke-width="1" opacity="0" d="M 177 79 L 228.5 79 L 230 80.5 L 237 98.5 L 240 120 L 180.5 120 L 180 119.5 L 180 103.5 L 179 102.5 L 179 93.5 L 178 92.5 L 177 79 Z " /><path fill="rgb(0,0,0)" stroke="rgb(0,0,0)" stroke-width="1" opacity="0" d="M 16 136 L 74.5 136 L 75 136.5 L 75 143.5 L 76 144.5 L 76 158.5 L 77 159.5 L 77 167.5 L 79 179 L 27.5 179 L 27 177.5 Q 17.1 160.6 16 136 Z " /><path fill="rgb(0,0,0)" stroke="rgb(0,0,0)" stroke-width="1" opacity="0" d="M 91 136 L 164.5 136 L 165 137.5 L 164 138.5 L 164 154.5 L 163 155.5 L 163 164.5 L 162 165.5 L 161 179 L 95.5 179 Q 94.5 179 95 174.5 L 92 158.5 L 91 136 Z " /><path fill="rgb(0,0,0)" stroke="rgb(0,0,0)" stroke-width="1" opacity="0" d="M 180 136 L 239.5 136 Q 240.8 136.3 240 142.5 L 237 157.5 L 229 179 L 177.5 179 Q 176.3 178.8 177 172.5 L 178 171.5 L 179 154.5 L 180 153.5 L 180 136 Z " /><path fill="rgb(0,0,0)" stroke="rgb(0,0,0)" stroke-width="1" opacity="0" d="M 0.5 143 L 4 163.5 L 14 188.5 Q 26.7 211.9 46.5 228 Q 60.3 239.7 78.5 247 L 100.5 254 L 113 255.5 L 0 256 L 0.5 143 Z " /><path fill="rgb(0,0,0)" stroke="rgb(0,0,0)" stroke-width="1" opacity="0" d="M 255.5 143 L 256 256 L 142 255.5 L 162.5 252 L 189.5 241 Q 209.4 229.9 224 213.5 Q 238.1 198.1 247 177.5 L 254 154.5 L 255.5 143 Z " /><path fill="rgb(0,0,0)" stroke="rgb(0,0,0)" stroke-width="1" opacity="0" d="M 38.5 195 L 81.5 195 L 83 196.5 Q 87.1 219.4 98 235.5 L 95.5 236 Q 65.8 226.8 47 206.5 L 38.5 195 Z " /><path fill="rgb(0,0,0)" stroke="rgb(0,0,0)" stroke-width="1" opacity="0" d="M 99 195 L 156.5 195 L 157 196.5 L 153 209.5 L 145 226.5 L 136.5 237 L 127.5 241 Q 119.2 238.8 115 232.5 Q 103.2 217.1 99 195 Z " /><path fill="rgb(0,0,0)" stroke="rgb(0,0,0)" stroke-width="1" opacity="0" d="M 173 195 L 218 195.5 L 205.5 210 Q 186.6 228.6 157.5 237 L 158 235.5 Q 168.7 218 173 195 Z " /></svg>