<svg width="512" height="512" version="1.1" xmlns="http://www.w3.org/2000/svg" desc="Created with imagetracer.js version 1.2.6" ><path fill="rgb(0,0,0)" stroke="rgb(0,0,0)" stroke-width="1" opacity="0.9882352941176471" d="M 240.5 0 L 271.5 0 L 272.5 1 L 283.5 1 L 284.5 2 L 298.5 3 L 328.5 10 L 351.5 18 Q 409.5 42.5 448 86.5 Q 478.9 121.1 497 168.5 L 503 187.5 L 510 220.5 L 511 239.5 L 512 240.5 L 512 271.5 L 511 272.5 L 511 283.5 L 510 284.5 L 510 291.5 L 507 308.5 L 501 331.5 L 490 360.5 Q 466 412.5 425.5 448 Q 390.9 478.9 343.5 497 L 317.5 505 L 291.5 510 L 272.5 511 L 271.5 512 L 240.5 512 L 239.5 511 L 228.5 511 L 227.5 510 L 220.5 510 L 203.5 507 L 180.5 501 L 153.5 491 Q 100.2 466.8 64 425.5 Q 32.9 391.1 15 343.5 L 10 328.5 L 2 291.5 L 1 272.5 L 0 271.5 L 0 240.5 L 1 239.5 L 1 228.5 L 2 227.5 L 2 220.5 L 5 203.5 L 10 183.5 L 22 151.5 Q 45.6 100.1 85.5 65 Q 116.7 36.7 158.5 19 L 180.5 11 L 203.5 5 L 220.5 2 L 227.5 2 L 228.5 1 L 239.5 1 L 240.5 0 Z M 239 33 L 222 43 Q 205 57 193 77 Q 181 96 173 119 L 174 121 L 241 121 L 241 34 L 239 33 Z M 271 33 L 271 121 L 339 121 Q 328 86 307 60 L 287 40 L 271 33 Z M 178 44 Q 134 60 104 89 Q 88 103 75 121 L 141 121 Q 154 77 179 45 L 178 44 Z M 334 44 L 334 47 L 345 62 L 360 91 L 371 121 L 437 121 L 424 105 Q 389 64 334 44 Z M 57 151 Q 45 169 39 192 L 35 207 L 32 230 L 31 231 L 31 241 L 32 241 L 121 241 L 124 198 L 125 197 L 129 166 L 132 156 Q 132 151 132 151 L 57 151 Z M 163 151 L 156 186 L 154 208 L 153 209 L 153 219 L 152 220 L 152 235 L 151 236 Q 150 241 152 241 L 241 241 L 241 151 L 163 151 Z M 271 151 L 271 241 L 361 241 L 358 200 L 357 199 L 353 169 L 349 155 L 349 151 L 271 151 Z M 380 151 L 388 198 L 389 217 L 390 218 L 390 234 L 391 235 Q 390 241 392 241 L 481 241 L 479 217 L 475 199 L 468 177 L 457 153 L 456 151 L 380 151 Z M 31 271 L 33 296 L 37 314 L 44 336 L 55 360 L 57 361 L 132 361 L 124 315 L 123 296 L 122 295 L 122 279 L 121 278 Q 122 271 121 271 L 31 271 Z M 151 271 L 154 313 L 155 314 L 159 344 L 163 358 L 164 361 L 241 361 L 241 271 L 151 271 Z M 271 271 L 271 361 L 349 361 L 356 327 L 358 305 L 359 304 L 359 294 L 360 293 L 360 278 L 361 277 Q 362 271 361 271 L 271 271 Z M 391 271 L 388 315 L 387 316 L 384 341 L 380 357 Q 379 361 381 361 L 456 361 Q 467 343 473 321 L 478 301 L 480 283 L 481 282 L 481 272 L 481 271 L 391 271 Z M 76 391 L 88 408 Q 123 447 178 468 L 179 468 L 163 444 Q 150 420 141 393 L 141 391 L 76 391 Z M 173 391 Q 184 426 205 453 L 226 472 L 241 479 L 241 391 L 173 391 Z M 271 391 L 271 479 Q 283 476 292 468 Q 307 456 317 439 Q 330 418 339 394 L 339 391 L 271 391 Z M 371 391 Q 358 434 334 467 L 334 468 Q 377 453 408 424 Q 424 409 437 392 L 371 391 Z " /><path fill="rgb(0,0,0)" stroke="rgb(0,0,0)" stroke-width="1" opacity="0" d="M 0 0 L 240 0.5 L 228.5 1 L 227.5 2 L 220.5 2 L 203.5 5 L 180.5 11 L 151.5 22 Q 100.2 45.7 65 85.5 Q 36.7 116.7 19 158.5 L 10 183.5 L 5 203.5 L 2 220.5 L 2 227.5 L 1 228.5 L 0.5 240 L 0 0 Z " /><path fill="rgb(0,0,0)" stroke="rgb(0,0,0)" stroke-width="1" opacity="0" d="M 272.5 0 L 512 0 L 512 239.5 L 511 239.5 L 511 228.5 L 510 227.5 L 510 220.5 L 507 203.5 L 501 180.5 L 490 151.5 Q 466 99.5 425.5 64 Q 393.7 35.8 351.5 18 L 317.5 7 L 291.5 2 L 272.5 1 L 272.5 0 Z " /><path fill="rgb(0,0,0)" stroke="rgb(0,0,0)" stroke-width="1" opacity="0" d="M 238.5 33 L 241 33.5 L 241 121 L 173.5 121 L 173 118.5 Q 181.3 95.8 193 76.5 Q 204.6 57.1 221.5 43 L 238.5 33 Z " /><path fill="rgb(0,0,0)" stroke="rgb(0,0,0)" stroke-width="1" opacity="0" d="M 271 33 L 286.5 40 L 307 59.5 Q 327.9 85.8 339 121 L 271 121 L 271 33 Z " /><path fill="rgb(0,0,0)" stroke="rgb(0,0,0)" stroke-width="1" opacity="0" d="M 177.5 44 L 179 44.5 Q 153.8 77.2 141 121 L 75 120.5 Q 87.7 103.2 103.5 89 Q 134.1 60.1 177.5 44 Z " /><path fill="rgb(0,0,0)" stroke="rgb(0,0,0)" stroke-width="1" opacity="0" d="M 333.5 44 Q 388.9 64.1 424 104.5 L 437 120.5 L 371 121 L 360 90.5 L 345 61.5 L 334 46.5 L 333.5 44 Z " /><path fill="rgb(0,0,0)" stroke="rgb(0,0,0)" stroke-width="1" opacity="0" d="M 56.5 151 L 131.5 151 Q 132.5 151 132 155.5 L 129 165.5 L 125 196.5 L 124 197.5 L 121 241 L 31.5 241 L 31 240.5 L 31 230.5 L 32 229.5 L 35 206.5 L 39 191.5 Q 45.2 168.7 56.5 151 Z " /><path fill="rgb(0,0,0)" stroke="rgb(0,0,0)" stroke-width="1" opacity="0" d="M 163 151 L 241 151 L 241 241 L 151.5 241 Q 150.4 240.9 151 235.5 L 152 234.5 L 152 219.5 L 153 218.5 L 153 208.5 L 154 207.5 L 156 185.5 L 163 151 Z " /><path fill="rgb(0,0,0)" stroke="rgb(0,0,0)" stroke-width="1" opacity="0" d="M 271 151 L 348.5 151 L 349 154.5 L 353 168.5 L 357 198.5 L 358 199.5 L 361 241 L 271 241 L 271 151 Z " /><path fill="rgb(0,0,0)" stroke="rgb(0,0,0)" stroke-width="1" opacity="0" d="M 380 151 L 455.5 151 L 457 152.5 L 468 176.5 L 475 198.5 L 479 216.5 L 481 241 L 391.5 241 Q 390.3 240.8 391 234.5 L 390 233.5 L 390 217.5 L 389 216.5 L 388 197.5 L 380 151 Z " /><path fill="rgb(0,0,0)" stroke="rgb(0,0,0)" stroke-width="1" opacity="0" d="M 31 271 L 120.5 271 Q 121.8 271.3 121 277.5 L 122 278.5 L 122 294.5 L 123 295.5 L 124 314.5 L 132 361 L 56.5 361 L 55 359.5 L 44 335.5 L 37 313.5 L 33 295.5 L 31 271 Z " /><path fill="rgb(0,0,0)" stroke="rgb(0,0,0)" stroke-width="1" opacity="0" d="M 151 271 L 241 271 L 241 361 L 163.5 361 L 163 357.5 L 159 343.5 L 155 313.5 L 154 312.5 L 151 271 Z " /><path fill="rgb(0,0,0)" stroke="rgb(0,0,0)" stroke-width="1" opacity="0" d="M 271 271 L 360.5 271 Q 361.6 271.1 361 276.5 L 360 277.5 L 360 292.5 L 359 293.5 L 359 303.5 L 358 304.5 L 356 326.5 L 349 361 L 271 361 L 271 271 Z " /><path fill="rgb(0,0,0)" stroke="rgb(0,0,0)" stroke-width="1" opacity="0" d="M 391 271 L 480.5 271 L 481 271.5 L 481 281.5 L 480 282.5 L 478 300.5 L 473 320.5 Q 466.8 343.3 455.5 361 L 380.5 361 Q 379.5 361 380 356.5 L 384 340.5 L 387 315.5 L 388 314.5 L 391 271 Z " /><path fill="rgb(0,0,0)" stroke="rgb(0,0,0)" stroke-width="1" opacity="0" d="M 0.5 272 L 1 283.5 L 2 284.5 L 2 291.5 L 5 308.5 L 10 328.5 L 21 358.5 Q 45.2 411.8 86.5 448 Q 115.4 474.1 153.5 491 L 180.5 501 L 203.5 507 L 220.5 510 L 227.5 510 L 228.5 511 L 240 511.5 L 0 512 L 0.5 272 Z " /><path fill="rgb(0,0,0)" stroke="rgb(0,0,0)" stroke-width="1" opacity="0" d="M 511.5 272 L 512 512 L 272 511.5 L 291.5 510 L 317.5 505 L 358.5 491 Q 411.2 467.2 447 426.5 Q 475.3 395.3 493 353.5 L 501 331.5 L 507 308.5 L 510 291.5 L 510 284.5 L 511 283.5 L 511.5 272 Z " /><path fill="rgb(0,0,0)" stroke="rgb(0,0,0)" stroke-width="1" opacity="0" d="M 75.5 391 L 140.5 391 L 141 392.5 Q 149.9 420.1 163 443.5 L 179 467.5 L 177.5 468 Q 123.3 447.2 88 407.5 L 75.5 391 Z " /><path fill="rgb(0,0,0)" stroke="rgb(0,0,0)" stroke-width="1" opacity="0" d="M 173 391 L 241 391 L 241 479 L 225.5 472 L 205 452.5 Q 184 426.4 173 391 Z " /><path fill="rgb(0,0,0)" stroke="rgb(0,0,0)" stroke-width="1" opacity="0" d="M 271 391 L 338.5 391 L 339 393.5 Q 329.9 417.9 317 438.5 Q 306.5 455.5 291.5 468 Q 283 475.8 271 479 L 271 391 Z " /><path fill="rgb(0,0,0)" stroke="rgb(0,0,0)" stroke-width="1" opacity="0" d="M 371 391 L 437 391.5 Q 423.8 409.3 407.5 424 Q 377 452.5 333.5 468 L 334 466.5 Q 358.4 434 371 391 Z " /></svg>